<svg width="56" height="50" viewBox="0 0 56 50" fill="none" xmlns="http://www.w3.org/2000/svg">
<path d="M8.4 0H47.6C49.8278 0 51.9644 0.877974 53.5397 2.44078C55.115 4.00358 56 6.1232 56 8.33333V33.3333C56 35.5435 55.115 37.6631 53.5397 39.2259C51.9644 40.7887 49.8278 41.6667 47.6 41.6667H8.4C6.17218 41.6667 4.03561 40.7887 2.4603 39.2259C0.884997 37.6631 0 35.5435 0 33.3333L0 8.33333C0 6.1232 0.884997 4.00358 2.4603 2.44078C4.03561 0.877974 6.17218 0 8.4 0ZM19.6 44.4444H36.4C37.1426 44.4444 37.8548 44.7371 38.3799 45.258C38.905 45.779 39.2 46.4855 39.2 47.2222C39.2 47.9589 38.905 48.6655 38.3799 49.1864C37.8548 49.7073 37.1426 50 36.4 50H19.6C18.8574 50 18.1452 49.7073 17.6201 49.1864C17.095 48.6655 16.8 47.9589 16.8 47.2222C16.8 46.4855 17.095 45.779 17.6201 45.258C18.1452 44.7371 18.8574 44.4444 19.6 44.4444Z" fill="#2285E4"/>
<path d="M32.1667 10H23.8333C22.2907 9.99998 20.8109 10.6204 19.7177 11.7254C18.6245 12.8305 18.0069 14.3302 18 15.8965C18 20.4149 18.8333 23.8714 19.5313 25.974C20.4396 28.7028 21.6792 30.7854 22.9312 31.6855C23.2081 31.8886 23.5407 31.9985 23.8823 31.9996C24.3045 31.9984 24.7107 31.8354 25.0197 31.5432C25.3287 31.251 25.5177 30.8512 25.549 30.4237C25.6375 29.2052 26.0698 25.2294 28 25.2294C29.9302 25.2294 30.3625 29.2052 30.451 30.4237C30.473 30.7241 30.5731 31.0131 30.7411 31.2614C30.9091 31.5097 31.139 31.7082 31.4073 31.8367C31.6719 31.9656 31.9658 32.0198 32.2582 31.9936C32.5505 31.9673 32.8305 31.8616 33.0688 31.6876C34.3187 30.7854 35.5604 28.7028 36.4688 25.9762C37.1667 23.8714 38 20.4149 38 15.8965C37.9931 14.3302 37.3755 12.8305 36.2823 11.7254C35.1891 10.6204 33.7093 9.99998 32.1667 10Z" fill="white"/>
</svg>
